# xmcd CD database file
#
# Track frame offsets:
#	187
#	28024
#	60249
#	76654
#	89027
#	105359
#
# Disc length: 1596 seconds
#
# Revision: 0
# Processed by: cddbd v1.5.1PL2 Copyright (c) Steve Scherf et al.
# Submitted via: CDex 1.60beta1
#
DISCID=39063a06
DTITLE=Gigi Gryce - Gigi Gryce And His Orchestra
DYEAR=1953
DGENRE=Jazz
TTITLE0=Brown Skins
TTITLE1=Keeping Up With Jonesy
TTITLE2=Deltitnu
TTITLE3=Quick Step
TTITLE4=La Rose Noire
TTITLE5=Bum's Rush
EXTD=YEAR: 1953
EXTT0=
EXTT1=
EXTT2=
EXTT3=
EXTT4=
EXTT5=
PLAYORDER=
